<?xml version="1.0" standalone="no"?>
<!DOCTYPE svg PUBLIC "-//W3C//DTD SVG 1.1//EN" "http://www.w3.org/Graphics/SVG/1.1/DTD/svg11.dtd" >
<svg>
<metadata>
Created by FontForge 20110222 at Sat Jan  4 06:58:17 2014
 By Orthosie Webhosting
(C) 1993 B &#38; P Graphics, Ltd.
</metadata>
<defs>
<font id="MontrealHeavyRegular" horiz-adv-x="655" >
  <font-face 
    font-family="MontrealHeavyRegular"
    font-weight="5"
    font-stretch="normal"
    units-per-em="1000"
    panose-1="0 0 0 0 0 0 0 0 0 0"
    ascent="800"
    descent="-200"
    x-height="505"
    cap-height="721"
    bbox="-108 -233 1037 1040"
    underline-thickness="50"
    underline-position="-75"
    unicode-range="U+0020-F002"
  />
<missing-glyph horiz-adv-x="794" 
d="M49 0v794h696v-794h-696zM696 49v696h-598v-696h598z" />
    <glyph glyph-name=".notdef" horiz-adv-x="794" 
d="M49 0v794h696v-794h-696zM696 49v696h-598v-696h598z" />
    <glyph glyph-name="glyph1" horiz-adv-x="0" 
 />
    <glyph glyph-name="glyph2" horiz-adv-x="290" 
 />
    <glyph glyph-name="space" unicode=" " horiz-adv-x="290" 
 />
    <glyph glyph-name="exclam" unicode="!" horiz-adv-x="294" 
d="M154 213q49 0 83.5 -34.5t34.5 -84.5q0 -48 -34 -83t-83 -35q-50 0 -84.5 34.5t-34.5 83.5q0 50 34.5 84.5t83.5 34.5zM46 721h217v-467h-217v467z" />
    <glyph glyph-name="quotedbl" unicode="&#x22;" horiz-adv-x="523" 
d="M55 745l206 -25l-111 -352l-139 16zM301 745l205 -25l-111 -352l-139 16z" />
    <glyph glyph-name="numbersign" unicode="#" horiz-adv-x="634" 
d="M44 274h116l36 172h-115l15 72h116l42 202h72l-42 -202h86l43 202h72l-43 -202h115l-15 -72h-115l-37 -172h115l-15 -72h-115l-43 -202h-72l43 202h-87l-43 -202h-72l43 202h-115zM318 274l37 172h-87l-36 -172h86z" />
    <glyph glyph-name="dollar" unicode="$" horiz-adv-x="560" 
d="M58 263l23 -23q14 -12 33 -26t54 -33.5t80 -19.5q30 0 51 15t21 38q0 20 -21 30l-11 7l-17 5l-53 15l-62 21q-61 25 -97 77t-36 116q0 90 60.5 159.5t148.5 78.5v92h158v-86l59 -15q19 -7 39 -16t40 -20l-69 -175q-83 56 -144 56q-27 0 -43 -11t-16 -30q0 -9 7 -17
q3 -6 12 -15q11 -8 21 -11t82 -22.5t118 -70.5t46 -137q0 -115 -48.5 -158.5t-65.5 -55.5t-52 -29v-105h-144v92l-34 2q-27 3 -55.5 11t-53 20.5t-42.5 22.5t-47 29z" />
    <glyph glyph-name="percent" unicode="%" horiz-adv-x="1025" 
d="M236 736q90 0 153 -63t63 -154q0 -90 -63.5 -153.5t-152.5 -63.5q-90 0 -154 63t-64 154q0 89 64 153t154 64zM641 751l127 -68l-393 -722l-125 68zM790 421q90 0 153 -64t63 -154q0 -89 -63 -153t-153 -64t-153 63t-63 153q0 91 63 155t153 64zM170 519q0 -29 19 -51
t46 -22q26 0 45 21t19 52q0 30 -18 51t-45 21q-28 0 -47 -21t-19 -51zM726 202q0 -29 19 -50t45 -21q28 0 47 21t19 51t-19 51t-47 21q-26 0 -45 -21t-19 -52z" />
    <glyph glyph-name="ampersand" unicode="&#x26;" horiz-adv-x="791" 
d="M131 563q0 82 68 137t171 55q110 0 177.5 -53.5t67.5 -139.5q0 -75 -40 -119t-92 -72l78 -82l95 96l131 -122l-102 -107l62 -65l-148 -135l-85 93q-13 -8 -25 -14.5t-62.5 -31.5t-149.5 -25q-116 0 -187.5 60.5t-71.5 160.5q0 156 178 216q-65 75 -65 148zM383 492
q44 39 44 67q0 47 -48 47q-20 0 -32 -11t-12 -30q0 -15 11.5 -33t36.5 -40zM290 303q-31 -18 -43.5 -34.5t-12.5 -38.5q0 -29 21 -49t50 -20q18 0 38.5 8t41.5 22z" />
    <glyph glyph-name="quotesingle" unicode="'" horiz-adv-x="279" 
d="M55 745l206 -25l-111 -352l-139 16z" />
    <glyph glyph-name="parenleft" unicode="(" horiz-adv-x="325" 
d="M321 836q-21 -53 -29.5 -78.5t-36 -124.5t-27.5 -273q0 -173 28.5 -277.5t35 -122.5t29.5 -75l-127 -88q-31 49 -49.5 83.5t-65.5 148t-47 331.5q0 219 46.5 330.5t65 147t50.5 86.5z" />
    <glyph glyph-name="parenright" unicode=")" horiz-adv-x="326" 
d="M52 12q22 77 34 166.5t12 180.5q0 89 -12 179.5t-30 154t-52 142.5l129 87q31 -48 49 -80t44 -94.5t47 -171t21 -217.5q0 -227 -51.5 -349.5t-109.5 -212.5l-129 87q18 42 29 70.5t19 57.5z" />
    <glyph glyph-name="asterisk" unicode="*" horiz-adv-x="469" 
d="M53 638l112 -28v111h141v-112l111 28l34 -138l-105 -25l56 -92l-122 -75l-48 80l-51 -78l-118 78l59 88l-104 24z" />
    <glyph glyph-name="plus" unicode="+" 
d="M71 483h159v166h195v-166h159v-173h-159v-166h-195v166h-159v173z" />
    <glyph glyph-name="comma" unicode="," horiz-adv-x="280" 
d="M55 217l208 -25l-113 -352l-139 16z" />
    <glyph glyph-name="hyphen" unicode="-" horiz-adv-x="341" 
d="M25 338h291v-194h-291v194z" />
    <glyph glyph-name="period" unicode="." horiz-adv-x="274" 
d="M137 210q48 0 81.5 -34.5t33.5 -82.5t-33 -82t-82 -34q-47 0 -81 34t-34 82t33.5 82.5t81.5 34.5z" />
    <glyph glyph-name="slash" unicode="/" horiz-adv-x="354" 
d="M197 754l138 -33l-177 -753l-140 32z" />
    <glyph glyph-name="zero" unicode="0" 
d="M328 736q137 0 226 -106t89 -270t-89 -270t-226 -106q-139 0 -228 106t-89 270t89 270t228 106zM238 360q0 -73 24 -115.5t67 -42.5q40 0 64 43t24 115t-24 115t-65 43q-42 0 -66 -43t-24 -115z" />
    <glyph glyph-name="one" unicode="1" 
d="M119 173h112v375h-110v173h327v-548l111 6v-179h-440v173z" />
    <glyph glyph-name="two" unicode="2" 
d="M339 736q124 0 200.5 -66t76.5 -173q0 -85 -32.5 -126.5t-45 -54t-27.5 -25.5l-58 -45l-95 -73h254v-173h-573v126l218 186q27 23 62.5 61.5t50 63.5t14.5 46q0 24 -18 41t-45 17q-28 0 -45 -20t-17 -54l2 -15h-223q12 139 88.5 211.5t212.5 72.5z" />
    <glyph glyph-name="three" unicode="3" 
d="M252 245q0 -84 71 -84q31 0 52.5 20.5t21.5 50.5q0 27 -21 45t-53 18l-27 -3v162l16 -1q31 0 51.5 16.5t20.5 41.5q0 23 -18 38t-44 15q-29 0 -46 -18t-17 -49l-200 -3q0 110 78.5 175.5t204.5 65.5q114 0 185.5 -54.5t71.5 -142.5q0 -41 -20 -77t-44 -50.5t-34 -18
t-31 -6.5q71 -9 110 -51t39 -111q0 -105 -83 -173t-212 -68q-200 0 -239 80t-48 112.5t-9 69.5h224z" />
    <glyph glyph-name="four" unicode="4" 
d="M36 272l250 449h264v-432h68v-152h-67v-137h-209v137h-306v135zM208 289h134v152l3 52l3 32l2 34l-12 -27l-17 -37l-24 -49z" />
    <glyph glyph-name="five" unicode="5" 
d="M89 216q9 -8 15.5 -13t44 -25t99.5 -20q54 0 84.5 23.5t30.5 64.5q0 37 -32 63t-79 26l-47 -2h-5h-9l-96 14l80 374h383v-177l-226 4l-16 -80q21 4 38 4q101 0 165.5 -65.5t64.5 -167.5q0 -117 -81 -187t-218 -70q-46 0 -76.5 5t-72.5 18.5t-53.5 18.5t-25.5 14z" />
    <glyph glyph-name="six" unicode="6" 
d="M402 490q95 0 157 -66t62 -168q0 -120 -84.5 -196.5t-215.5 -76.5q-126 0 -206.5 76.5t-80.5 195.5q0 56 26 120t83 149l162 245l167 -112l-137 -176q37 9 67 9zM256 250q0 -34 20 -55t53 -21q32 0 52.5 22.5t20.5 58.5q0 35 -19.5 56.5t-52.5 21.5q-34 0 -54 -21
t-20 -58v-4z" />
    <glyph glyph-name="seven" unicode="7" 
d="M62 721h532v-157l-304 -616l-192 91l262 509h-298v173z" />
    <glyph glyph-name="eight" unicode="8" 
d="M128 399q-32 22 -51 58.5t-19 78.5q0 93 72.5 146.5t197.5 53.5q123 0 196 -54t73 -146q0 -22 -7 -45t-19 -45q-18 -29 -36.5 -42.5t-51.5 -21.5q37 -10 66 -30.5t48.5 -60t19.5 -85.5q0 -53 -34 -109q-30 -45 -86 -79.5t-169 -34.5q-114 0 -173.5 37t-88.5 87.5
t-29 98.5q0 46 20 85t43.5 56t36 22.5t34.5 12.5q-29 6 -43 17zM269 518q0 -30 16 -47t43 -17q57 0 57 67q0 62 -57 62q-27 0 -43 -16t-16 -45v-4zM262 223q0 -33 18.5 -52.5t47.5 -19.5q28 0 47 21t19 55q0 33 -17.5 52.5t-48.5 19.5q-66 0 -66 -72v-4z" />
    <glyph glyph-name="nine" unicode="9" 
d="M254 228q-95 0 -157 66t-62 167q0 120 83.5 197.5t213.5 77.5q124 0 206.5 -74.5t82.5 -186.5q0 -91 -31.5 -151.5t-46 -84t-25.5 -40.5l-164 -248l-168 110l136 178q-37 -11 -68 -11zM254 462q0 -35 20 -56t54 -21q31 0 51 22t20 58q0 35 -20 57t-53 22t-52.5 -22.5
t-19.5 -59.5z" />
    <glyph glyph-name="colon" unicode=":" horiz-adv-x="290" 
d="M152 210q48 0 82 -34t34 -83q0 -48 -34 -82t-82 -34q-47 0 -81 34t-34 82t33.5 82.5t81.5 34.5zM151 526q49 0 83 -33t34 -82t-34 -83t-82 -34q-47 0 -81.5 33.5t-34.5 81.5t33.5 82.5t81.5 34.5z" />
    <glyph glyph-name="semicolon" unicode=";" horiz-adv-x="302" 
d="M74 217l206 -25l-112 -352l-139 16zM162 525q48 0 82 -33t34 -82q0 -48 -34 -82t-83 -34q-48 0 -82 34t-34 82t34.5 81.5t82.5 33.5z" />
    <glyph glyph-name="less" unicode="&#x3c;" horiz-adv-x="406" 
d="M278 506l104 -103l-153 -152l152 -150l-104 -103l-252 254z" />
    <glyph glyph-name="equal" unicode="=" 
d="M75 541h506v-159h-506v159zM75 339h506v-158h-506v158z" />
    <glyph glyph-name="greater" unicode="&#x3e;" horiz-adv-x="402" 
d="M128 505l249 -253l-251 -253l-100 102l149 151l-150 151z" />
    <glyph glyph-name="question" unicode="?" horiz-adv-x="560" 
d="M257 214q50 0 83.5 -34.5t33.5 -84.5q0 -49 -34 -83t-84 -34q-49 0 -83 34t-34 83q0 50 34.5 84.5t83.5 34.5zM282 739q119 0 193 -64t74 -168q0 -83 -35 -120t-89 -62l-24 -10q-22 -10 -29 -18t-7 -25v-18h-216v64q0 52 15 72t65 29.5t74.5 30t24.5 59.5q0 29 -15 47
t-41 18q-27 0 -43 -21t-16 -56l-209 19q19 108 90.5 165.5t187.5 57.5z" />
    <glyph glyph-name="at" unicode="@" horiz-adv-x="865" 
d="M458 214q-10 -16 -14 -21t-20.5 -24t-64.5 -19q-27 0 -51.5 12t-51.5 48.5t-27 129.5q0 18 2.5 34t12 50t35 72.5t50.5 55.5t48 24t41 7q31 0 56 -15t34 -41l7 45h54l-36 -204l-12 -79l-3 -43q0 -20 11 -32t27 -12q6 0 16 3.5t19.5 11t23.5 22t20 22.5t14 24
q22 38 28 69.5t6.5 37t0.5 17.5q0 115 -68.5 187.5t-178.5 72.5q-23 0 -91 -9.5t-139.5 -96t-71.5 -210.5l2 -35q6 -57 36.5 -121t98.5 -108.5t150 -44.5q95 0 170.5 51t114.5 110l11 -67l-24 -30q-115 -124 -277 -124q-143 0 -244 90.5t-109 174.5t-8 108q0 222 115.5 288
t169 77.5t114.5 11.5q127 0 211 -88.5t84 -213.5q0 -32 -4 -57.5t-20.5 -71t-51 -86t-60 -51t-41.5 -14t-26 -3.5q-34 0 -56.5 18t-25.5 47l-1 12zM310 234q17 -34 58 -34q26 0 40.5 15t22.5 29.5t17.5 40.5t15 46t8.5 39l3 17l6 33q4 31 4 56q0 26 -18 43t-43 17
q-13 0 -33 -8t-38.5 -32t-28 -51.5t-14 -42.5t-8 -32t-4.5 -34.5t-1 -42.5q0 -17 3.5 -32.5t9.5 -26.5z" />
    <glyph glyph-name="A" unicode="A" horiz-adv-x="661" 
d="M208 721h245l232 -721h-227l-30 111h-196l-30 -111h-227zM272 270h115l-36 134l-8 41q-7 35 -10 64.5t-3 76.5q0 -52 -2 -77.5t-10 -63.5q-1 -11 -4.5 -23t-4.5 -18z" />
    <glyph glyph-name="B" unicode="B" horiz-adv-x="631" 
d="M32 721h298q33 0 54 -1t43 -3q69 -11 108 -57t39 -117q0 -114 -105 -155q72 -11 112 -57.5t40 -120.5q0 -119 -77.5 -164.5t-197.5 -45.5h-314v721zM256 462h43q28 0 44.5 11.5t16.5 31.5t-16.5 31.5t-44.5 11.5h-43v-86zM256 173h46q87 0 87 57q0 27 -21 45
q-11 7 -23.5 10t-40.5 3h-48v-115z" />
    <glyph glyph-name="C" unicode="C" horiz-adv-x="648" 
d="M533 475q-59 42 -121 42q-70 0 -116 -45t-46 -113q0 -69 46 -115t116 -46q37 0 68 14q15 5 24.5 11t29.5 22l106 -157q-30 -27 -49.5 -40.5t-73 -38.5t-140.5 -25q-157 0 -258 105t-101 269q0 162 102.5 269.5t257.5 107.5q84 0 146.5 -27t118.5 -76z" />
    <glyph glyph-name="D" unicode="D" horiz-adv-x="681" 
d="M32 721h264q67 0 148 -15.5t150 -108t69 -224.5q0 -168 -98.5 -270.5t-259.5 -102.5h-273v721zM256 202h48q59 0 96 45t37 116q0 68 -39 112t-101 44h-41v-317z" />
    <glyph glyph-name="E" unicode="E" horiz-adv-x="511" 
d="M32 721h447v-173h-223v-94h197v-173h-197v-108h230v-173h-454v721z" />
    <glyph glyph-name="F" unicode="F" horiz-adv-x="470" 
d="M32 721h443v-173h-219v-94h190v-173h-190v-281h-224v721z" />
    <glyph glyph-name="G" unicode="G" horiz-adv-x="781" 
d="M510 457q-47 86 -122 86q-62 0 -100.5 -53.5t-38.5 -139.5q0 -82 40.5 -131.5t106.5 -49.5q82 0 114 76h-136v173h389l1 -57q0 -50 -25 -144.5t-118.5 -163t-234.5 -68.5q-163 0 -265.5 103.5t-102.5 268.5q0 166 105 272t272 106q157 0 227 -65t104 -123z" />
    <glyph glyph-name="H" unicode="H" horiz-adv-x="690" 
d="M32 721h224v-241h178v241h223v-721h-223v278h-178v-278h-224v721z" />
    <glyph glyph-name="I" unicode="I" horiz-adv-x="289" 
d="M32 721h224v-721h-224v721z" />
    <glyph glyph-name="J" unicode="J" horiz-adv-x="457" 
d="M72 227q34 -37 71 -37q36 0 47.5 23t11.5 85v423h223v-455v-14v-12v-46q-3 -17 -8.5 -63t-66 -96t-154.5 -50q-103 0 -214 73z" />
    <glyph glyph-name="K" unicode="K" horiz-adv-x="682" 
d="M32 721h224v-323l174 323h253l-204 -348l236 -373h-262l-197 344v-344h-224v721z" />
    <glyph glyph-name="L" unicode="L" horiz-adv-x="459" 
d="M32 721h224v-519h208v-202h-432v721z" />
    <glyph glyph-name="M" unicode="M" horiz-adv-x="852" 
d="M86 721h222l95 -294q10 -33 16.5 -77t6.5 -105q0 59 6.5 104.5t17.5 77.5l94 294h221l76 -721h-216l-21 266l-2 64l1 47q0 30 5 74q-14 -119 -34 -182l-90 -269h-116l-89 269q-3 10 -10.5 42.5t-14.5 67.5l-11 50l-4 22q16 -96 16 -155l-1 -30l-27 -266h-216z" />
    <glyph glyph-name="N" unicode="N" horiz-adv-x="732" 
d="M32 721h238l168 -291q10 -18 43 -109l12 -31l12 -33q-14 60 -21.5 108t-7.5 75v281h223v-721h-231l-180 306q-9 15 -26 60.5t-39 110.5q15 -67 24 -116.5t9 -63.5v-297h-224v721z" />
    <glyph glyph-name="O" unicode="O" horiz-adv-x="768" 
d="M384 735q161 0 263.5 -105.5t102.5 -269.5q0 -165 -102.5 -270.5t-263.5 -105.5q-160 0 -263 106t-103 270q0 163 103 269t263 106zM249 360q0 -66 38.5 -110.5t96.5 -44.5t97 44t39 111q0 64 -39 109t-97 45t-96.5 -44.5t-38.5 -109.5z" />
    <glyph glyph-name="P" unicode="P" horiz-adv-x="615" 
d="M32 721h287q26 0 53.5 -2t81.5 -11t102 -72t48 -168q0 -244 -256 -244h-92v-224h-224v721zM256 403h41q79 0 79 72q0 66 -78 66h-42v-138z" />
    <glyph glyph-name="Q" unicode="Q" horiz-adv-x="771" 
d="M745 -39l-157 -126l-132 155q-41 -5 -70 -5q-163 0 -265.5 104.5t-102.5 270.5q0 164 103 269t265 105t265 -105t103 -269q0 -38 -8 -78t-23.5 -79t-32.5 -64t-60 -71zM249 360q0 -63 40.5 -108.5t96.5 -45.5t96 45t40 109q0 62 -40 107t-96 45q-57 0 -97 -45t-40 -107z
" />
    <glyph glyph-name="R" unicode="R" horiz-adv-x="632" 
d="M32 721h312q27 0 52 -2t48 -5q75 -14 120.5 -71.5t45.5 -138.5q0 -78 -38 -130.5t-106 -68.5l184 -305h-258l-136 272v-272h-224v721zM256 404h35q84 0 84 75q0 69 -78 69h-41v-144z" />
    <glyph glyph-name="S" unicode="S" horiz-adv-x="560" 
d="M58 263l23 -23q14 -12 33 -26t54 -33.5t80 -19.5q30 0 51 15t21 38q0 9 -5 17t-14.5 14t-19.5 9.5t-46.5 13.5t-53.5 15t-51.5 19.5t-70.5 66.5t-36 116q0 48 21 96.5t57 82t91.5 52.5t119.5 19q115 0 216 -57l-69 -175q-83 56 -145 56q-26 0 -42 -11t-16 -31
q0 -10 6 -19t22 -16.5t66.5 -22t76.5 -26.5t70.5 -49.5t44.5 -140.5q0 -117 -78.5 -188.5t-206.5 -71.5q-74 0 -134 21t-123 70z" />
    <glyph glyph-name="T" unicode="T" horiz-adv-x="504" 
d="M-11 721h526v-202h-152v-519h-222v519h-152v202z" />
    <glyph glyph-name="U" unicode="U" horiz-adv-x="666" 
d="M634 296q0 -42 -2 -65.5t-13.5 -82.5t-89 -111.5t-196.5 -52.5q-154 0 -214.5 63t-73.5 108.5t-13 140.5v425h224v-409l1 -49q4 -30 24 -47t52 -17q41 0 56 19t18 35.5t3 58.5v409h224v-425z" />
    <glyph glyph-name="V" unicode="V" horiz-adv-x="644" 
d="M212 721l93 -324q8 -33 12.5 -84.5t4.5 -97.5q0 64 5 109t12 73l93 324h245l-260 -721h-190l-259 721h244z" />
    <glyph glyph-name="W" unicode="W" horiz-adv-x="984" 
d="M215 721l69 -332q9 -41 9 -146l-1 -39l3 31l6 46q4 44 8 72t6 36l74 332h206l74 -332q3 -15 6.5 -38.5t7.5 -69.5l6 -46l3 -31v35q0 114 7 150l70 332h233l-192 -721h-224l-76 334q-7 31 -10 66t-3 78l-4 48l-1 25l-1 -15l-5 -58q0 -62 -3.5 -90t-8.5 -54l-76 -334h-224
l-192 721h233z" />
    <glyph glyph-name="X" unicode="X" horiz-adv-x="679" 
d="M206 381l-206 340h253l58 -115q28 -53 28 -147q0 24 3 41.5t5.5 32.5t7.5 37t13 36l58 115h253l-205 -340l231 -381h-260l-80 160q-14 29 -22 61t-8 76q0 -40 -7 -75t-19 -62l-74 -160h-260z" />
    <glyph glyph-name="Y" unicode="Y" horiz-adv-x="602" 
d="M214 721l65 -148q10 -22 16.5 -55.5t6.5 -76.5q0 39 6.5 74.5t15.5 57.5l64 148h247l-222 -406v-315h-224v315l-221 406h246z" />
    <glyph glyph-name="Z" unicode="Z" horiz-adv-x="624" 
d="M11 84l237 393q26 42 82 79q-35 -18 -65 -27.5t-48 -9.5h-178v202h549v-99l-226 -380q-25 -39 -84 -79q64 35 108 35l223 4v-202h-598v84z" />
    <glyph glyph-name="bracketleft" unicode="[" horiz-adv-x="299" 
d="M32 882h263v-152h-58v-739h58v-152h-263v1043z" />
    <glyph glyph-name="backslash" unicode="\" horiz-adv-x="355" 
d="M173 720l126 -720h-144l-126 720h144z" />
    <glyph glyph-name="bracketright" unicode="]" horiz-adv-x="299" 
d="M4 -9h59v739h-59v152h263v-1043h-263v152z" />
    <glyph glyph-name="asciicircum" unicode="^" horiz-adv-x="417" 
d="M209 784l204 -132l-43 -103l-161 55l-161 -55l-44 103z" />
    <glyph glyph-name="underscore" unicode="_" horiz-adv-x="452" 
d="M29 0h360v-43h-360v43z" />
    <glyph glyph-name="grave" unicode="`" horiz-adv-x="318" 
d="M178 789l78 -183l-132 -56l-120 165z" />
    <glyph glyph-name="a" unicode="a" horiz-adv-x="604" 
d="M356 505h216v-505h-216v63q-33 -78 -133 -78q-91 0 -148 74t-57 194q0 116 59.5 191.5t152.5 75.5q94 0 126 -71v56zM223 251q0 -42 19.5 -66.5t54.5 -24.5q33 0 52 24t19 67q0 41 -20 67t-53 26t-52.5 -25.5t-19.5 -67.5z" />
    <glyph glyph-name="b" unicode="b" horiz-adv-x="601" 
d="M32 721h217v-271q33 69 124 69q92 0 151 -73t59 -190q0 -122 -58.5 -196.5t-154.5 -74.5q-73 0 -94.5 26t-26.5 46v-57h-217v721zM229 251q0 -43 19 -67t55 -24q33 0 52 24t19 66q0 43 -19 68t-53 25t-53.5 -24.5t-19.5 -67.5z" />
    <glyph glyph-name="c" unicode="c" horiz-adv-x="474" 
d="M389 321q-12 6 -29 11t-36 5q-40 0 -64.5 -23.5t-24.5 -61.5q0 -39 24 -64t64 -25q33 0 65 24l90 -119q-13 -11 -24.5 -19.5t-33 -23.5t-65.5 -28t-87 -13q-110 0 -180 74.5t-70 191.5q0 119 74 194t193 75q26 0 53 -4t55.5 -13.5t68.5 -31.5z" />
    <glyph glyph-name="d" unicode="d" horiz-adv-x="604" 
d="M355 721h216l1 -721h-217v66q-7 -39 -40 -60t-86 -21q-92 0 -151.5 75.5t-59.5 195.5q0 114 62 188.5t158 74.5q35 0 65.5 -11t41 -25t10.5 -28v266zM226 251q0 -39 21.5 -65.5t54.5 -26.5t52 24t19 66q0 43 -19.5 68.5t-52.5 25.5t-54 -25.5t-21 -66.5z" />
    <glyph glyph-name="e" unicode="e" horiz-adv-x="578" 
d="M221 211q0 -38 20.5 -60.5t54.5 -22.5q55 0 63 55l190 -25q-10 -32 -54 -103t-206 -71q-120 0 -196 72t-76 187q0 119 78 198t197 79q122 0 195.5 -76.5t73.5 -206.5v-26h-340zM219 309h144q0 38 -19 60t-51 22q-31 0 -52.5 -22.5t-21.5 -59.5z" />
    <glyph glyph-name="f" unicode="f" horiz-adv-x="372" 
d="M-8 505h74v59q0 75 53 123t136 48q40 0 72 -5t77 -20l-14 -137l-36 3q-72 0 -72 -51v-20h108v-173h-108v-332h-216v332h-74v173z" />
    <glyph glyph-name="g" unicode="g" horiz-adv-x="605" 
d="M357 505h216v-478q0 -230 -290 -230q-103 0 -225 43l37 146q92 -45 157 -45q47 0 76 19t29 49v37q-31 -59 -115 -59q-103 0 -163.5 71.5t-60.5 192.5q0 118 61 193t157 75q89 0 121 -70v56zM297 160q35 0 54 24t19 67q0 42 -20 68t-53 26t-53 -25t-20 -67
q0 -44 19.5 -68.5t53.5 -24.5z" />
    <glyph glyph-name="h" unicode="h" horiz-adv-x="584" 
d="M32 721h217v-273q54 71 140 71t117 -43.5t38 -76.5t7 -91v-308h-216v268q0 40 -9.5 55.5t-33.5 15.5q-26 0 -33.5 -14.5t-8.5 -25.5t-1 -37v-262h-217v721z" />
    <glyph glyph-name="i" unicode="i" horiz-adv-x="278" 
d="M32 505h217v-505h-217v505zM141 736q51 0 86.5 -28.5t35.5 -69.5t-35 -69t-86 -28t-87.5 28.5t-36.5 68.5q0 41 35.5 69.5t87.5 28.5z" />
    <glyph glyph-name="j" unicode="j" horiz-adv-x="280" 
d="M-74 -38q21 -5 37 -5q39 0 59 22q8 11 11 23.5t3 42.5v460h216v-507q0 -51 -15 -95t-62.5 -74.5t-109.5 -30.5q-69 0 -151 25zM146 736q50 0 85 -28t35 -70q0 -41 -35 -69t-85 -28q-51 0 -87.5 28.5t-36.5 68.5t36.5 69t87.5 29z" />
    <glyph glyph-name="k" unicode="k" horiz-adv-x="596" 
d="M32 721h217v-428l126 212h244l-161 -247l170 -258h-262l-117 222v-222h-217v721z" />
    <glyph glyph-name="l" unicode="l" horiz-adv-x="281" 
d="M32 721h217v-721h-217v721z" />
    <glyph glyph-name="m" unicode="m" horiz-adv-x="879" 
d="M32 505h209v-64q57 78 157 78q89 0 127 -70q74 71 165 71q65 0 110 -37t45 -91l1 -73v-319h-216v261l-1 31q0 18 -10.5 29.5t-27.5 11.5q-10 0 -22 -8t-16 -18t-5 -19.5t-1 -41.5v-246h-216v268l-1 29q-2 18 -12.5 28t-26.5 10q-25 0 -32.5 -17t-8.5 -25.5t-1 -33.5v-259
h-217v505z" />
    <glyph glyph-name="n" unicode="n" horiz-adv-x="586" 
d="M32 505h217v-70q13 19 22 29.5t22 22t45 22t66 10.5q42 0 75 -16t49 -42t21 -52.5t5 -80.5v-328h-217v267l-2 36q-5 36 -41 36q-25 0 -35 -19t-10 -67v-253h-217v505z" />
    <glyph glyph-name="o" unicode="o" horiz-adv-x="584" 
d="M292 519q122 0 197.5 -74.5t75.5 -193.5q0 -120 -75.5 -193.5t-197.5 -73.5t-198 74t-76 194q0 119 76 193t198 74zM219 252q0 -40 20.5 -65.5t52.5 -25.5t52 25t20 66q0 39 -20.5 64.5t-51.5 25.5q-32 0 -52.5 -25.5t-20.5 -64.5z" />
    <glyph glyph-name="p" unicode="p" horiz-adv-x="602" 
d="M32 505h217v-63q24 76 124 76q93 0 152 -73t59 -190q0 -122 -58 -196t-153 -74q-91 0 -124 76v-248h-217v692zM234 246q0 -43 19.5 -66.5t54.5 -23.5q33 0 53 24t20 66t-20 67t-54 25q-33 0 -53 -25t-20 -67z" />
    <glyph glyph-name="q" unicode="q" horiz-adv-x="604" 
d="M356 505h216v-692h-216v240q-39 -68 -127 -68q-93 0 -152 74.5t-59 192.5q0 116 59.5 191.5t151.5 75.5q85 0 127 -69v55zM224 253q0 -43 20.5 -68.5t54.5 -25.5q33 0 52 24t19 65q0 45 -19.5 70.5t-53.5 25.5q-33 0 -53 -25t-20 -66z" />
    <glyph glyph-name="r" unicode="r" horiz-adv-x="425" 
d="M32 505h217v-78q40 91 155 91l36 -2l-40 -199q-25 4 -49 4q-57 0 -75.5 -22.5t-22.5 -41t-4 -54.5v-203h-217v505z" />
    <glyph glyph-name="s" unicode="s" horiz-adv-x="450" 
d="M51 191q28 -26 63 -41.5t67 -15.5q17 0 27.5 7.5t10.5 19.5q0 13 -11 18.5t-21 8.5t-34.5 7.5t-35 8t-34.5 17t-42 46.5t-18 69q0 81 61.5 132t159.5 51q87 0 174 -35l-44 -147q-22 15 -52 26t-47 11q-47 0 -47 -25q0 -11 14 -18.5t44 -12.5t49.5 -11t40.5 -18t38 -44.5
t17 -73.5q0 -85 -63 -136t-166 -51q-76 0 -113 14.5t-55 23.5t-37 20z" />
    <glyph glyph-name="t" unicode="t" horiz-adv-x="404" 
d="M-3 505h71v123h216v-123h110v-173h-110v-111q0 -28 3 -38t19 -25t53 -15l32 3l24 -125q-39 -19 -74.5 -28t-73.5 -9q-88 0 -131.5 37t-55.5 67t-12 82v162h-71v173z" />
    <glyph glyph-name="u" unicode="u" horiz-adv-x="586" 
d="M554 234q0 -32 -3 -57.5t-15.5 -69t-80 -83.5t-162.5 -40q-115 0 -172.5 45.5t-73 86.5t-15.5 118v271h217v-263v-26q2 -15 14 -24.5t30 -9.5q24 0 33 11.5t10 23t1 25.5v263h217v-271z" />
    <glyph glyph-name="v" unicode="v" horiz-adv-x="524" 
d="M201 505l43 -159q6 -18 9 -43l9 -69l8 69l10 43l43 159h229l-205 -505h-171l-205 505h230z" />
    <glyph glyph-name="w" unicode="w" horiz-adv-x="783" 
d="M203 505l38 -139l8 -43q2 -17 3.5 -31t1.5 -41q3 39 6.5 50.5t5.5 20t4 17.5t9 30l47 136h130l48 -136l14 -47q6 -29 11 -71q0 25 2 42t4 32.5t3.5 25t4.5 15.5l36 139h225l-169 -505h-168l-54 160q-1 3 -6 22.5t-8 35.5l-8 70q0 -20 -2.5 -39t-4.5 -31l-14 -58l-54 -160
h-168l-170 505h225z" />
    <glyph glyph-name="x" unicode="x" horiz-adv-x="595" 
d="M164 267l-180 238h254l39 -64q8 -15 13 -32.5t7 -34.5q6 44 20 67l39 64h255l-182 -238l201 -267h-255l-56 80q-7 11 -12.5 26t-9.5 39q-6 -35 -26 -65l-52 -80h-255z" />
    <glyph glyph-name="y" unicode="y" horiz-adv-x="514" 
d="M197 505l42 -132q9 -30 12.5 -58t3.5 -56q6 69 21 109l46 137h224l-228 -545q-7 -18 -16.5 -38.5t-42 -73t-151.5 -52.5q-29 0 -47 3t-44 13l21 172q16 -7 37 -7q36 0 43.5 14.5t11.5 25t15 39.5l-170 449h222z" />
    <glyph glyph-name="z" unicode="z" horiz-adv-x="526" 
d="M8 77l148 207q3 7 20.5 26t49.5 47q-16 -7 -35.5 -13t-34.5 -9l-25 -3h-103v173h488v-69l-155 -217l-15 -17q-16 -19 -26 -29.5t-29 -28.5q23 11 37 16.5t32 9.5l24 3h119v-173h-495v77z" />
    <glyph glyph-name="braceleft" unicode="{" horiz-adv-x="397" 
d="M96 432v310q0 48 26 74t73 26h143v-86h-13q-30 0 -43 -11t-13 -37v-254q0 -64 -62 -88l-27 -6l27 -6q28 -11 45 -35t17 -53v-254q0 -48 56 -48h13v-86h-143q-47 0 -73 26t-26 74v310q0 30 -19 51t-48 21q29 0 48 20t19 52z" />
    <glyph glyph-name="bar" unicode="|" horiz-adv-x="218" 
d="M29 720h144v-720h-144v720z" />
    <glyph glyph-name="braceright" unicode="}" horiz-adv-x="397" 
d="M29 -36h13q30 0 43 11t13 37v254q0 29 17 52.5t46 35.5l26 6l-26 6q-29 12 -46 35.5t-17 52.5v254q0 26 -12 37t-44 11h-13v86h143q47 0 73 -26t26 -74v-310q0 -31 19.5 -51.5t47.5 -20.5q-28 0 -47.5 -20.5t-19.5 -51.5v-310q0 -48 -26 -74t-73 -26h-143v86z" />
    <glyph glyph-name="asciitilde" unicode="~" horiz-adv-x="401" 
d="M4 892q54 22 102 22q11 0 25.5 -2t26.5 -4l51 -10q45 -9 86 -9q32 0 52 4t50 17v-133q-57 -16 -94 -16q-23 0 -53 5l-48 10q-57 12 -96 12q-48 0 -102 -30v134z" />
    <glyph glyph-name="Euro" horiz-adv-x="648" 
d="M533 475q-59 42 -121 42q-70 0 -116 -45t-46 -113q0 -69 46 -115t116 -46q37 0 68 14q15 5 24.5 11t29.5 22l106 -157q-30 -27 -49.5 -40.5t-73 -38.5t-140.5 -25q-157 0 -258 105t-101 269q0 162 102.5 269.5t257.5 107.5q84 0 146.5 -27t118.5 -76zM-28 391l27 64h468
l-27 -64h-468zM-28 263l27 64h414l-27 -64h-414z" />
    <glyph glyph-name="Euro" unicode="&#x20ac;" horiz-adv-x="648" 
d="M533 475q-59 42 -121 42q-70 0 -116 -45t-46 -113q0 -69 46 -115t116 -46q37 0 68 14q15 5 24.5 11t29.5 22l106 -157q-30 -27 -49.5 -40.5t-73 -38.5t-140.5 -25q-157 0 -258 105t-101 269q0 162 102.5 269.5t257.5 107.5q84 0 146.5 -27t118.5 -76zM-28 391l27 64h468
l-27 -64h-468zM-28 263l27 64h414l-27 -64h-414z" />
    <glyph glyph-name="nonbreakingspace" unicode="&#xa0;" horiz-adv-x="500" 
 />
    <glyph glyph-name="exclamdown" unicode="&#xa1;" horiz-adv-x="294" 
d="M154 738q48 0 83 -34t35 -82q0 -49 -34 -84t-83 -35q-50 0 -84.5 34.5t-34.5 84.5q0 49 34.5 82.5t83.5 33.5zM45 465h216v-467h-216v467z" />
    <glyph glyph-name="cent" unicode="&#xa2;" horiz-adv-x="458" 
d="M198 582h141v-76q13 -2 26.5 -4t24.5 -6q30 -8 72 -31l-73 -150q-39 17 -65 17q-38 0 -63.5 -23.5t-25.5 -58.5q0 -37 25.5 -61.5t62.5 -24.5q33 0 65 25l71 -130q-24 -21 -40 -32t-31.5 -17t-24.5 -8.5t-24 -6.5v-81h-141v82q-81 20 -130.5 89.5t-49.5 162.5
q0 61 22 113.5t52.5 77.5t51.5 36t54 21v86z" />
    <glyph glyph-name="sterling" unicode="&#xa3;" horiz-adv-x="570" 
d="M25 202l26 76h-25v143h78l30 77q40 104 140 169.5t219 65.5h19.5t31.5 -3v-182l-26 1q-143 0 -190 -106l-11 -22h226v-143h-278l-25 -76h302v-202h-517v202z" />
    <glyph glyph-name="currency" unicode="&#xa4;" horiz-adv-x="497" 
d="M82 260q-29 45 -29 104q0 16 1 25t7.5 31.5t20.5 44.5l-51 51q10 14 20 25.5t23 21.5l55 -56q47 33 103 33q54 0 100 -32l54 56l14 -11q20 -18 31 -38l-52 -49q17 -23 25 -50t8 -56q0 -56 -34 -102l53 -52l-10 -12l-10 -10l-25 -25l-54 54q-45 -33 -102 -33
q-55 0 -100 33l-57 -53l-11 11l-10 11l-12 13l-11 13zM232 243q49 0 83 34t34 83t-34 83t-83 34q-48 0 -82.5 -34.5t-34.5 -82.5q0 -49 34 -83t83 -34z" />
    <glyph glyph-name="yen" unicode="&#xa5;" horiz-adv-x="718" 
d="M272 721l64 -148q10 -22 16.5 -55.5t6.5 -76.5q0 41 6.5 75.5t16.5 56.5l64 148h247l-125 -240h95v-145h-177l-16 -21v-14h193v-144h-193v-157h-222v157h-186v144h186v14l-10 21h-176v145h97l-134 240h247z" />
    <glyph glyph-name="section" unicode="&#xa7;" horiz-adv-x="621" 
d="M63 532q0 91 69.5 148.5t179.5 57.5q124 0 191 -56t87 -177l-176 5q0 42 -26 65t-70 23q-64 0 -64 -47q0 -13 5 -18l10 -12l13 -14l24 -11l165 -66q131 -52 131 -188q0 -49 -17 -83.5t-63 -73.5q24 -20 33 -41t9 -54q0 -93 -72 -154t-182 -61t-171.5 46.5t-84.5 100.5
q-11 22 -16.5 45t-5.5 56l178 -7l-1 -11q0 -40 27 -65t69 -25q66 0 66 54q0 29 -39 45l-164 69q-80 34 -115.5 77.5t-35.5 106.5q0 53 22 90.5t73 71.5q-49 46 -49 103zM215 336q-14 -18 -14 -34q0 -39 42 -57l171 -68q15 20 15 37q0 13 -10 28t-24 21z" />
    <glyph glyph-name="dieresis" unicode="&#xa8;" horiz-adv-x="404" 
d="M76 756q42 0 71 -30t29 -74q0 -43 -29 -73t-73 -30q-43 0 -73 30t-30 73t30.5 73.5t74.5 30.5zM330 756q43 0 74 -30t31 -74q0 -43 -30 -73t-74 -30q-42 0 -72 30t-30 73q0 42 30 73t71 31z" />
    <glyph glyph-name="copyright" unicode="&#xa9;" horiz-adv-x="932" 
d="M431 734q155 0 264 -109t109 -265q0 -155 -109 -264t-264 -109t-264 109t-109 264q0 154 109 264t264 110zM217 141q43 -44 99.5 -67t115.5 -23q61 0 115 22.5t121 91t67 196.5q0 127 -66.5 195t-122 90.5t-116.5 22.5q-59 0 -114 -22.5t-98 -66.5t-67 -101.5t-24 -118.5
q0 -126 90 -219zM546 466q-28 23 -52.5 27.5t-39.5 4.5q-51 0 -88.5 -32.5t-42.5 -67t-5 -43.5q0 -54 31 -91.5t66 -42.5t43 -5q12 0 26 3t25 8t19.5 10t17.5 13l43 -66q-40 -31 -79 -40t-66 -9q-79 0 -136.5 46.5t-67 91.5t-10.5 56.5t-1 27.5q0 21 9 72t68 101t141 50
q19 0 59 -7t84 -42z" />
    <glyph glyph-name="ordfeminine" unicode="&#xaa;" horiz-adv-x="488" 
d="M422 319v-96h-384v96h384zM316 720h105l1 -354h-107v55l-8 -13q-15 -22 -44 -36t-66 -14q-16 0 -55 7t-76.5 55.5t-37.5 116.5q0 14 1 21.5t9 50t55.5 83t103.5 40.5q41 0 72.5 -20t46.5 -44v52zM211 451q6 -1 18 -1q33 0 56.5 20.5t27.5 41t4 32.5t-6 46t-40.5 42
t-44.5 8q-37 0 -62.5 -26.5t-25.5 -69.5q0 -38 19.5 -62.5t53.5 -30.5z" />
    <glyph glyph-name="guillemotleft" unicode="&#xab;" horiz-adv-x="680" 
d="M278 506l104 -103l-153 -152l152 -150l-104 -103l-252 254zM551 506l104 -103l-152 -152l151 -150l-103 -103l-252 254z" />
    <glyph glyph-name="logicalnot" unicode="&#xac;" horiz-adv-x="685" 
d="M29 504h576v-288h-108v144h-468v144z" />
    <glyph glyph-name="registered" unicode="&#xae;" horiz-adv-x="932" 
d="M431 734q155 0 264 -109t109 -265q0 -155 -109 -264t-264 -109t-264 109t-109 264q0 154 109 264t264 110zM217 141q43 -44 99.5 -67t115.5 -23q61 0 115 22.5t121 91t67 196.5q0 127 -66.5 195t-122 90.5t-116.5 22.5q-59 0 -114 -22.5t-98 -66.5t-67 -101.5t-24 -118.5
q0 -126 90 -219zM296 578h134q42 0 61.5 -5t47 -25.5t33 -46t6.5 -36t1 -18.5q0 -42 -22 -70.5t-64 -40.5l-8 -2l120 -183h-102l-120 193v-193h-87v427zM416 379q61 0 67.5 32t6.5 37q0 28 -18.5 43.5t-52.5 15.5h-36v-128h33z" />
    <glyph glyph-name="plusminus" unicode="&#xb1;" horiz-adv-x="594" 
d="M506 19h-462v68h462v-68zM309 331h197v-68h-197v-122h-68v122h-197v68h197v122h68v-122z" />
    <glyph glyph-name="acute" unicode="&#xb4;" horiz-adv-x="317" 
d="M141 789l171 -73l-120 -166l-130 55z" />
    <glyph glyph-name="mu" unicode="&#xb5;" horiz-adv-x="623" 
d="M166 153q0 -71 14 -95t50 -24q57 0 95 81t38 204v130h92v-328q0 -45 9.5 -66t28.5 -21q20 0 31.5 20.5t11.5 61.5v14h21l1 -9v-13q0 -55 -23.5 -86t-66.5 -31q-49 0 -75.5 43t-26.5 129q-23 -89 -61.5 -130.5t-96.5 -41.5q-42 0 -73 26q-28 27 -40 77l-1 -28
q0 -65 32 -142t32 -91q0 -20 -11 -31t-31 -11q-23 0 -33 17t-10 53l2 58l2 89l-1 101l-2 95v245h92v-296z" />
    <glyph glyph-name="paragraph" unicode="&#xb6;" horiz-adv-x="670" 
d="M591 720v-79h-345q-58 0 -98.5 -41.5t-40.5 -100.5q0 -58 40.5 -98.5t98.5 -40.5h60v223h86v-583h-86v281h-60q-90 0 -153.5 63.5t-63.5 155.5q0 91 63.5 155.5t154.5 64.5h344zM450 583h86v-583h-86v583z" />
    <glyph glyph-name="cedilla" unicode="&#xb8;" horiz-adv-x="212" 
d="M46 -50h162l-72 -154h-132z" />
    <glyph glyph-name="ordmasculine" unicode="&#xba;" horiz-adv-x="488" 
d="M35 319h382v-96h-382v96zM264 731q71 -14 114.5 -65.5t43.5 -121.5q0 -81 -56 -136t-141 -55q-84 0 -140 55t-56 136t56.5 135.5t138.5 54.5q19 0 40 -3zM136 526q7 -33 31.5 -54t57.5 -21q38 0 64.5 26.5t26.5 66.5l-2 18q-11 60 -44 67t-45 7t-44 -7t-45 -68l-2 -17z
" />
    <glyph glyph-name="guillemotright" unicode="&#xbb;" horiz-adv-x="676" 
d="M128 505l249 -253l-251 -253l-100 102l149 151l-150 151zM401 505l250 -253l-251 -253l-101 102l151 151l-151 151z" />
    <glyph glyph-name="questiondown" unicode="&#xbf;" horiz-adv-x="560" 
d="M303 739q48 0 83 -34t35 -83q0 -50 -34.5 -84.5t-84.5 -34.5q-48 0 -82.5 35.5t-34.5 84.5q0 48 34 82t84 34zM278 -21q-119 0 -193 64t-74 168q0 82 46 133q16 15 31.5 25.5t46.5 24.5l24 10q21 9 28 17.5t7 23.5v20h216v-64q0 -53 -14.5 -72.5t-64.5 -29.5t-75 -31
t-25 -58q0 -30 15 -48t42 -18t43 21t16 59l209 -21q-19 -109 -90.5 -166.5t-187.5 -57.5z" />
    <glyph glyph-name="Agrave" unicode="&#xc0;" horiz-adv-x="661" 
d="M208 721h245l232 -721h-227l-30 111h-196l-30 -111h-227zM272 270h115l-36 134l-8 41q-7 35 -10 64.5t-3 76.5q0 -52 -2 -77.5t-10 -63.5q-1 -11 -4.5 -23t-4.5 -18zM349 1040l78 -183l-132 -56l-120 165z" />
    <glyph glyph-name="Aacute" unicode="&#xc1;" horiz-adv-x="661" 
d="M208 721h245l232 -721h-227l-30 111h-196l-30 -111h-227zM272 270h115l-36 134l-8 41q-7 35 -10 64.5t-3 76.5q0 -52 -2 -77.5t-10 -63.5q-1 -11 -4.5 -23t-4.5 -18zM313 1040l171 -73l-120 -166l-130 55z" />
    <glyph glyph-name="Acircumflex" unicode="&#xc2;" horiz-adv-x="661" 
d="M208 721h245l232 -721h-227l-30 111h-196l-30 -111h-227zM272 270h115l-36 134l-8 41q-7 35 -10 64.5t-3 76.5q0 -52 -2 -77.5t-10 -63.5q-1 -11 -4.5 -23t-4.5 -18zM331 1035l204 -132l-43 -103l-161 55l-161 -55l-44 103z" />
    <glyph glyph-name="Atilde" unicode="&#xc3;" horiz-adv-x="661" 
d="M208 721h245l232 -721h-227l-30 111h-196l-30 -111h-227zM272 270h115l-36 134l-8 41q-7 35 -10 64.5t-3 76.5q0 -52 -2 -77.5t-10 -63.5q-1 -11 -4.5 -23t-4.5 -18zM139 935q51 20 100 20q11 0 24.5 -1t25.5 -4l49 -9q44 -9 85 -9q30 0 50.5 4t48.5 17v-130
q-27 -8 -48 -11.5t-44 -3.5q-11 0 -24.5 1t-27.5 4l-46 9q-37 6 -57 8.5t-37 2.5q-49 0 -99 -30v132z" />
    <glyph glyph-name="Adieresis" unicode="&#xc4;" horiz-adv-x="661" 
d="M197 690h-11q-45 0 -77 25t-32 59q0 36 31 60t78 24q43 0 74.5 -25t31.5 -60q0 -17 -24 -52h127q-23 23 -23 53q0 36 31 60t76 24t74.5 -24.5t29.5 -62.5q0 -35 -30 -58t-75 -23l-13 1l220 -691h-227l-30 111h-196l-30 -111h-227zM391 270l-40 134l-8 41q-7 38 -10 67
t-3 74q0 -52 -2 -77.5t-10 -63.5q-1 -11 -4.5 -23t-4.5 -18l-37 -134h119z" />
    <glyph glyph-name="Aring" unicode="&#xc5;" horiz-adv-x="653" 
d="M208 721h66q-30 21 -42.5 39.5t-12.5 42.5q0 44 32.5 74.5t79.5 30.5q44 0 76.5 -29.5t32.5 -72.5l1 -5q0 -23 -11 -40t-40 -40h55l234 -721h-224l-30 110h-197l-30 -110h-223zM387 263l-39 141l-10 41q-7 45 -9.5 70t-2.5 71q0 -52 -2 -74t-9 -67l-9 -41l-40 -141h121z
M330 773q14 0 23 9t9 23q0 33 -32 33q-13 0 -23 -9t-10 -23t9.5 -23.5t23.5 -9.5z" />
    <glyph glyph-name="AE" unicode="&#xc6;" horiz-adv-x="951" 
d="M363 721h553v-173h-224v-94h197v-173h-197v-111l231 3v-173h-454v136h-193l-62 -136h-239zM347 291h122v274z" />
    <glyph glyph-name="Ccedilla" unicode="&#xc7;" horiz-adv-x="648" 
d="M533 475q-59 42 -121 42q-70 0 -116 -45t-46 -113q0 -69 46 -115t116 -46q37 0 68 14q15 5 24.5 11t29.5 22l106 -157q-30 -27 -49.5 -40.5t-73 -38.5t-140.5 -25q-157 0 -258 105t-101 269q0 162 102.5 269.5t257.5 107.5q84 0 146.5 -27t118.5 -76zM278 -30h161
l-71 -155h-132z" />
    <glyph glyph-name="Egrave" unicode="&#xc8;" horiz-adv-x="511" 
d="M32 721h447v-173h-223v-94h197v-173h-197v-108h230v-173h-454v721zM274 1040l78 -183l-132 -56l-120 165z" />
    <glyph glyph-name="Eacute" unicode="&#xc9;" horiz-adv-x="511" 
d="M32 721h447v-173h-223v-94h197v-173h-197v-108h230v-173h-454v721zM238 1040l171 -73l-120 -166l-130 55z" />
    <glyph glyph-name="Ecircumflex" unicode="&#xca;" horiz-adv-x="511" 
d="M32 721h447v-173h-223v-94h197v-173h-197v-108h230v-173h-454v721zM256 1035l204 -132l-43 -103l-161 55l-161 -55l-44 103z" />
    <glyph glyph-name="Edieresis" unicode="&#xcb;" horiz-adv-x="511" 
d="M32 721h447v-173h-223v-94h197v-173h-197v-108h230v-173h-454v721zM129 1007q42 0 71 -30t29 -74q0 -43 -29 -73t-73 -30q-43 0 -73 30t-30 73t30.5 73.5t74.5 30.5zM383 1007q43 0 74 -30t31 -74q0 -43 -30 -73t-74 -30q-42 0 -72 30t-30 73q0 42 30 73t71 31z" />
    <glyph glyph-name="Igrave" unicode="&#xcc;" horiz-adv-x="289" 
d="M32 721h224v-721h-224v721zM164 1040l78 -183l-132 -56l-120 165z" />
    <glyph glyph-name="Iacute" unicode="&#xcd;" horiz-adv-x="289" 
d="M32 721h224v-721h-224v721zM127 1040l171 -73l-120 -166l-130 55z" />
    <glyph glyph-name="Icircumflex" unicode="&#xce;" horiz-adv-x="289" 
d="M32 721h224v-721h-224v721zM145 1035l204 -132l-43 -103l-161 55l-161 -55l-44 103z" />
    <glyph glyph-name="Idieresis" unicode="&#xcf;" horiz-adv-x="289" 
d="M32 721h224v-721h-224v721zM19 1007q42 0 71 -30t29 -74q0 -43 -29 -73t-73 -30q-43 0 -73 30t-30 73t30.5 73.5t74.5 30.5zM273 1007q43 0 74 -30t31 -74q0 -43 -30 -73t-74 -30q-42 0 -72 30t-30 73q0 42 30 73t71 31z" />
    <glyph glyph-name="Ntilde" unicode="&#xd1;" horiz-adv-x="732" 
d="M32 721h238l168 -291q10 -18 43 -109l12 -31l12 -33q-14 60 -21.5 108t-7.5 75v281h223v-721h-231l-180 306q-9 15 -26 60.5t-39 110.5q15 -67 24 -116.5t9 -63.5v-297h-224v721zM174 935q51 20 100 20q11 0 24.5 -1t25.5 -4l49 -9q44 -9 85 -9q30 0 50.5 4t48.5 17v-130
q-27 -8 -48 -11.5t-44 -3.5q-11 0 -24.5 1t-27.5 4l-46 9q-37 6 -57 8.5t-37 2.5q-49 0 -99 -30v132z" />
    <glyph glyph-name="Ograve" unicode="&#xd2;" horiz-adv-x="768" 
d="M384 735q161 0 263.5 -105.5t102.5 -269.5q0 -165 -102.5 -270.5t-263.5 -105.5q-160 0 -263 106t-103 270q0 163 103 269t263 106zM249 360q0 -66 38.5 -110.5t96.5 -44.5t97 44t39 111q0 64 -39 109t-97 45t-96.5 -44.5t-38.5 -109.5zM403 1040l78 -183l-132 -56
l-120 165z" />
    <glyph glyph-name="Oacute" unicode="&#xd3;" horiz-adv-x="768" 
d="M384 735q161 0 263.5 -105.5t102.5 -269.5q0 -165 -102.5 -270.5t-263.5 -105.5q-160 0 -263 106t-103 270q0 163 103 269t263 106zM249 360q0 -66 38.5 -110.5t96.5 -44.5t97 44t39 111q0 64 -39 109t-97 45t-96.5 -44.5t-38.5 -109.5zM366 1040l171 -73l-120 -166
l-130 55z" />
    <glyph glyph-name="Ocircumflex" unicode="&#xd4;" horiz-adv-x="768" 
d="M384 735q161 0 263.5 -105.5t102.5 -269.5q0 -165 -102.5 -270.5t-263.5 -105.5q-160 0 -263 106t-103 270q0 163 103 269t263 106zM249 360q0 -66 38.5 -110.5t96.5 -44.5t97 44t39 111q0 64 -39 109t-97 45t-96.5 -44.5t-38.5 -109.5zM384 1035l204 -132l-43 -103
l-161 55l-161 -55l-44 103z" />
    <glyph glyph-name="Otilde" unicode="&#xd5;" horiz-adv-x="768" 
d="M384 735q161 0 263.5 -105.5t102.5 -269.5q0 -165 -102.5 -270.5t-263.5 -105.5q-160 0 -263 106t-103 270q0 163 103 269t263 106zM249 360q0 -66 38.5 -110.5t96.5 -44.5t97 44t39 111q0 64 -39 109t-97 45t-96.5 -44.5t-38.5 -109.5zM192 935q51 20 100 20
q11 0 24.5 -1t25.5 -4l49 -9q44 -9 85 -9q30 0 50.5 4t48.5 17v-130q-27 -8 -48 -11.5t-44 -3.5q-11 0 -24.5 1t-27.5 4l-46 9q-37 6 -57 8.5t-37 2.5q-49 0 -99 -30v132z" />
    <glyph glyph-name="Odieresis" unicode="&#xd6;" horiz-adv-x="768" 
d="M156 861q44 0 76 -25t32 -60t-32 -60t-76 -25t-75 25t-31 60t31 60t75 25zM612 861q43 0 74.5 -25t31.5 -60t-31 -60t-75 -25q-45 0 -76.5 25t-31.5 60t31 60t77 25zM384 735q161 0 263.5 -105.5t102.5 -269.5q0 -165 -102.5 -270.5t-263.5 -105.5q-160 0 -263 106
t-103 270q0 163 103 269t263 106zM249 360q0 -66 38.5 -110.5t96.5 -44.5t97 44t39 111q0 64 -39 109t-97 45t-96.5 -44.5t-38.5 -109.5z" />
    <glyph glyph-name="Oslash" unicode="&#xd8;" horiz-adv-x="774" 
d="M104 106q-12 16 -22.5 32t-37 63.5t-26.5 158.5q0 168 102.5 274.5t263.5 106.5q37 0 73.5 -7t68 -19t53 -25.5t57.5 -43.5l81 85l39 -39l-84 -84q9 -13 15.5 -23.5t34.5 -65t28 -159.5q0 -168 -102.5 -273.5t-264.5 -105.5q-81 0 -124.5 18t-62 29.5t-49.5 38.5l-85 -89
l-44 40zM305 231q35 -29 79 -29q60 0 98 44t38 114q0 27 -2 40t-11 39zM471 483q-30 35 -79 35q-63 0 -100 -43t-37 -117q0 -28 3 -43.5t12 -36.5z" />
    <glyph glyph-name="Ugrave" unicode="&#xd9;" horiz-adv-x="666" 
d="M634 296q0 -42 -2 -65.5t-13.5 -82.5t-89 -111.5t-196.5 -52.5q-154 0 -214.5 63t-73.5 108.5t-13 140.5v425h224v-409l1 -49q4 -30 24 -47t52 -17q41 0 56 19t18 35.5t3 58.5v409h224v-425zM352 1040l78 -183l-132 -56l-120 165z" />
    <glyph glyph-name="Uacute" unicode="&#xda;" horiz-adv-x="666" 
d="M634 296q0 -42 -2 -65.5t-13.5 -82.5t-89 -111.5t-196.5 -52.5q-154 0 -214.5 63t-73.5 108.5t-13 140.5v425h224v-409l1 -49q4 -30 24 -47t52 -17q41 0 56 19t18 35.5t3 58.5v409h224v-425zM315 1040l171 -73l-120 -166l-130 55z" />
    <glyph glyph-name="Ucircumflex" unicode="&#xdb;" horiz-adv-x="666" 
d="M634 296q0 -42 -2 -65.5t-13.5 -82.5t-89 -111.5t-196.5 -52.5q-154 0 -214.5 63t-73.5 108.5t-13 140.5v425h224v-409l1 -49q4 -30 24 -47t52 -17q41 0 56 19t18 35.5t3 58.5v409h224v-425zM333 1035l204 -132l-43 -103l-161 55l-161 -55l-44 103z" />
    <glyph glyph-name="Udieresis" unicode="&#xdc;" horiz-adv-x="666" 
d="M119 721q-24 24 -24 53q0 35 31.5 59.5t76.5 24.5q44 0 74.5 -26t30.5 -63q0 -46 -52 -70v-387l1 -49q4 -30 24 -47t52 -17q41 0 56 19t18 35.5t3 58.5v387q-8 4 -16 9.5t-22 17t-14 46.5q0 36 30 61t75 25q42 0 75 -26t33 -60q0 -25 -24 -51h87v-425q0 -42 -2 -65.5
t-13.5 -82.5t-89 -111.5t-196.5 -52.5q-154 0 -214.5 63t-73.5 108.5t-13 140.5v425h87z" />
    <glyph glyph-name="germandbls" unicode="&#xdf;" horiz-adv-x="612" 
d="M34 494q0 68 13 106.5t64 87t180 48.5q119 0 189 -52t70 -142q0 -112 -105 -150q153 -40 153 -186q0 -96 -66.5 -159.5t-166.5 -63.5q-26 0 -47 4t-50 16l22 152l13 -1q23 0 40 20.5t17 49.5t-18 51t-44 22h-17v164h14q28 0 44.5 16.5t16.5 44.5q0 24 -15 40t-36 16
q-27 0 -41.5 -20.5t-14.5 -56.5v-501h-215v494z" />
    <glyph glyph-name="agrave" unicode="&#xe0;" horiz-adv-x="604" 
d="M356 505h216v-505h-216v63q-33 -78 -133 -78q-91 0 -148 74t-57 194q0 116 59.5 191.5t152.5 75.5q94 0 126 -71v56zM223 251q0 -42 19.5 -66.5t54.5 -24.5q33 0 52 24t19 67q0 41 -20 67t-53 26t-52.5 -25.5t-19.5 -67.5zM321 789l78 -183l-132 -56l-120 165z" />
    <glyph glyph-name="aacute" unicode="&#xe1;" horiz-adv-x="604" 
d="M356 505h216v-505h-216v63q-33 -78 -133 -78q-91 0 -148 74t-57 194q0 116 59.5 191.5t152.5 75.5q94 0 126 -71v56zM223 251q0 -42 19.5 -66.5t54.5 -24.5q33 0 52 24t19 67q0 41 -20 67t-53 26t-52.5 -25.5t-19.5 -67.5zM284 789l171 -73l-120 -166l-130 55z" />
    <glyph glyph-name="acircumflex" unicode="&#xe2;" horiz-adv-x="604" 
d="M356 505h216v-505h-216v63q-33 -78 -133 -78q-91 0 -148 74t-57 194q0 116 59.5 191.5t152.5 75.5q94 0 126 -71v56zM223 251q0 -42 19.5 -66.5t54.5 -24.5q33 0 52 24t19 67q0 41 -20 67t-53 26t-52.5 -25.5t-19.5 -67.5zM302 784l204 -132l-43 -103l-161 55l-161 -55
l-44 103z" />
    <glyph glyph-name="atilde" unicode="&#xe3;" horiz-adv-x="604" 
d="M356 505h216v-505h-216v63q-33 -78 -133 -78q-91 0 -148 74t-57 194q0 116 59.5 191.5t152.5 75.5q94 0 126 -71v56zM223 251q0 -42 19.5 -66.5t54.5 -24.5q33 0 52 24t19 67q0 41 -20 67t-53 26t-52.5 -25.5t-19.5 -67.5zM110 684q51 20 100 20q11 0 24.5 -1t25.5 -4
l49 -9q44 -9 85 -9q30 0 50.5 4t48.5 17v-130q-27 -8 -48 -11.5t-44 -3.5q-11 0 -24.5 1t-27.5 4l-46 9q-37 6 -57 8.5t-37 2.5q-49 0 -99 -30v132z" />
    <glyph glyph-name="adieresis" unicode="&#xe4;" horiz-adv-x="604" 
d="M188 736q42 0 72.5 -30.5t30.5 -73.5q0 -42 -30.5 -71.5t-73.5 -29.5q-42 0 -72 29t-30 72q0 44 30 74t73 30zM450 736q42 0 72 -30t30 -74q0 -42 -29.5 -71.5t-71.5 -29.5q-43 0 -73 29t-30 72t29.5 73.5t72.5 30.5zM356 505h216v-505h-216v63q-33 -78 -133 -78
q-91 0 -148 74t-57 194q0 116 59.5 191.5t152.5 75.5q94 0 126 -71v56zM223 251q0 -42 19.5 -66.5t54.5 -24.5q33 0 52 24t19 67q0 41 -20 67t-53 26t-52.5 -25.5t-19.5 -67.5z" />
    <glyph glyph-name="aring" unicode="&#xe5;" horiz-adv-x="604" 
d="M356 505h216v-505h-216v63q-33 -78 -133 -78q-91 0 -148 74t-57 194q0 116 59.5 191.5t152.5 75.5q94 0 126 -71v56zM295 730q46 0 77.5 -25.5t31.5 -62.5q0 -36 -31 -61t-79 -25q-45 0 -77.5 25.5t-32.5 60.5q0 37 32.5 62.5t78.5 25.5zM223 251q0 -42 19.5 -66.5
t54.5 -24.5q33 0 52 24t19 67q0 41 -20 67t-53 26t-52.5 -25.5t-19.5 -67.5zM262 643q0 -14 9.5 -23.5t22.5 -9.5q32 0 32 32q0 13 -9 23t-23 10q-12 0 -22 -9t-10 -23z" />
    <glyph glyph-name="ae" unicode="&#xe6;" horiz-adv-x="875" 
d="M197 373q-39 0 -91 -11l-50 124q7 3 16 6t44 14t103 11q73 0 128 -20q37 -11 76 -40q28 30 71.5 46t96.5 16q121 0 193.5 -75.5t72.5 -202.5l-1 -30h-335q8 -80 73 -80q24 0 40 13t20 37l192 -24q-11 -32 -18.5 -45.5t-52 -71t-183.5 -57.5q-90 0 -124.5 22t-42 28.5
t-13.5 12.5q-71 -63 -185 -63q-93 0 -151.5 48t-58.5 125q0 74 60.5 123.5t149.5 49.5q59 0 77.5 -6t28.5 -15q-33 65 -136 65zM202 172q0 -23 17 -37t47 -14t49 15t19 38q0 49 -78 49q-22 0 -38 -15t-16 -36zM522 311h142v10q0 33 -19 54t-51 21q-33 0 -52.5 -22.5
t-19.5 -62.5z" />
    <glyph glyph-name="ccedilla" unicode="&#xe7;" horiz-adv-x="475" 
d="M389 321q-12 6 -29 11t-36 5q-40 0 -64.5 -23.5t-24.5 -61.5q0 -39 24 -64t64 -25q33 0 65 24l90 -119q-13 -11 -24.5 -19.5t-33 -23.5t-65.5 -28t-87 -13q-110 0 -180 74.5t-70 191.5q0 119 74 194t193 75q26 0 53 -4t55.5 -13.5t68.5 -31.5zM173 -27h161l-71 -155h-132
z" />
    <glyph glyph-name="egrave" unicode="&#xe8;" horiz-adv-x="578" 
d="M221 211q0 -38 20.5 -60.5t54.5 -22.5q55 0 63 55l190 -25q-10 -32 -54 -103t-206 -71q-120 0 -196 72t-76 187q0 119 78 198t197 79q122 0 195.5 -76.5t73.5 -206.5v-26h-340zM219 309h144q0 38 -19 60t-51 22q-31 0 -52.5 -22.5t-21.5 -59.5zM308 789l78 -183l-132 -56
l-120 165z" />
    <glyph glyph-name="eacute" unicode="&#xe9;" horiz-adv-x="578" 
d="M221 211q0 -38 20.5 -60.5t54.5 -22.5q55 0 63 55l190 -25q-10 -32 -54 -103t-206 -71q-120 0 -196 72t-76 187q0 119 78 198t197 79q122 0 195.5 -76.5t73.5 -206.5v-26h-340zM219 309h144q0 38 -19 60t-51 22q-31 0 -52.5 -22.5t-21.5 -59.5zM271 789l171 -73
l-120 -166l-130 55z" />
    <glyph glyph-name="ecircumflex" unicode="&#xea;" horiz-adv-x="578" 
d="M221 211q0 -38 20.5 -60.5t54.5 -22.5q55 0 63 55l190 -25q-10 -32 -54 -103t-206 -71q-120 0 -196 72t-76 187q0 119 78 198t197 79q122 0 195.5 -76.5t73.5 -206.5v-26h-340zM219 309h144q0 38 -19 60t-51 22q-31 0 -52.5 -22.5t-21.5 -59.5zM289 784l204 -132
l-43 -103l-161 55l-161 -55l-44 103z" />
    <glyph glyph-name="edieresis" unicode="&#xeb;" horiz-adv-x="578" 
d="M221 211q0 -38 20.5 -60.5t54.5 -22.5q55 0 63 55l190 -25q-10 -32 -54 -103t-206 -71q-120 0 -196 72t-76 187q0 119 78 198t197 79q122 0 195.5 -76.5t73.5 -206.5v-26h-340zM219 309h144q0 38 -19 60t-51 22q-31 0 -52.5 -22.5t-21.5 -59.5zM163 756q42 0 71 -30
t29 -74q0 -43 -29 -73t-73 -30q-43 0 -73 30t-30 73t30.5 73.5t74.5 30.5zM417 756q43 0 74 -30t31 -74q0 -43 -30 -73t-74 -30q-42 0 -72 30t-30 73q0 42 30 73t71 31z" />
    <glyph glyph-name="igrave" unicode="&#xec;" horiz-adv-x="249" 
d="M18 505h217v-505h-217v505zM144 789l78 -183l-132 -56l-120 165z" />
    <glyph glyph-name="iacute" unicode="&#xed;" horiz-adv-x="249" 
d="M18 505h217v-505h-217v505zM107 789l171 -73l-120 -166l-130 55z" />
    <glyph glyph-name="icircumflex" unicode="&#xee;" horiz-adv-x="249" 
d="M18 505h217v-505h-217v505zM125 784l204 -132l-43 -103l-161 55l-161 -55l-44 103z" />
    <glyph glyph-name="idieresis" unicode="&#xef;" horiz-adv-x="249" 
d="M18 505h217v-505h-217v505zM-1 756q42 0 71 -30t29 -74q0 -43 -29 -73t-73 -30q-43 0 -73 30t-30 73t30.5 73.5t74.5 30.5zM253 756q43 0 74 -30t31 -74q0 -43 -30 -73t-74 -30q-42 0 -72 30t-30 73q0 42 30 73t71 31z" />
    <glyph glyph-name="ntilde" unicode="&#xf1;" horiz-adv-x="586" 
d="M32 505h217v-70q13 19 22 29.5t22 22t45 22t66 10.5q42 0 75 -16t49 -42t21 -52.5t5 -80.5v-328h-217v267l-2 36q-5 36 -41 36q-25 0 -35 -19t-10 -67v-253h-217v505zM101 684q51 20 100 20q11 0 24.5 -1t25.5 -4l49 -9q44 -9 85 -9q30 0 50.5 4t48.5 17v-130
q-27 -8 -48 -11.5t-44 -3.5q-11 0 -24.5 1t-27.5 4l-46 9q-37 6 -57 8.5t-37 2.5q-49 0 -99 -30v132z" />
    <glyph glyph-name="ograve" unicode="&#xf2;" horiz-adv-x="584" 
d="M292 519q122 0 197.5 -74.5t75.5 -193.5q0 -120 -75.5 -193.5t-197.5 -73.5t-198 74t-76 194q0 119 76 193t198 74zM219 252q0 -40 20.5 -65.5t52.5 -25.5t52 25t20 66q0 39 -20.5 64.5t-51.5 25.5q-32 0 -52.5 -25.5t-20.5 -64.5zM311 789l78 -183l-132 -56l-120 165z
" />
    <glyph glyph-name="oacute" unicode="&#xf3;" horiz-adv-x="584" 
d="M292 519q122 0 197.5 -74.5t75.5 -193.5q0 -120 -75.5 -193.5t-197.5 -73.5t-198 74t-76 194q0 119 76 193t198 74zM219 252q0 -40 20.5 -65.5t52.5 -25.5t52 25t20 66q0 39 -20.5 64.5t-51.5 25.5q-32 0 -52.5 -25.5t-20.5 -64.5zM274 789l171 -73l-120 -166l-130 55z
" />
    <glyph glyph-name="ocircumflex" unicode="&#xf4;" horiz-adv-x="584" 
d="M292 519q122 0 197.5 -74.5t75.5 -193.5q0 -120 -75.5 -193.5t-197.5 -73.5t-198 74t-76 194q0 119 76 193t198 74zM219 252q0 -40 20.5 -65.5t52.5 -25.5t52 25t20 66q0 39 -20.5 64.5t-51.5 25.5q-32 0 -52.5 -25.5t-20.5 -64.5zM292 784l204 -132l-43 -103l-161 55
l-161 -55l-44 103z" />
    <glyph glyph-name="otilde" unicode="&#xf5;" horiz-adv-x="584" 
d="M292 519q122 0 197.5 -74.5t75.5 -193.5q0 -120 -75.5 -193.5t-197.5 -73.5t-198 74t-76 194q0 119 76 193t198 74zM219 252q0 -40 20.5 -65.5t52.5 -25.5t52 25t20 66q0 39 -20.5 64.5t-51.5 25.5q-32 0 -52.5 -25.5t-20.5 -64.5zM100 684q51 20 100 20q11 0 24.5 -1
t25.5 -4l49 -9q44 -9 85 -9q30 0 50.5 4t48.5 17v-130q-27 -8 -48 -11.5t-44 -3.5q-11 0 -24.5 1t-27.5 4l-46 9q-37 6 -57 8.5t-37 2.5q-49 0 -99 -30v132z" />
    <glyph glyph-name="odieresis" unicode="&#xf6;" horiz-adv-x="584" 
d="M165 737q43 0 72.5 -30.5t29.5 -74.5q0 -42 -30.5 -71.5t-73.5 -29.5q-42 0 -71.5 29.5t-29.5 71.5q0 44 29.5 74.5t73.5 30.5zM418 737q44 0 73.5 -30.5t29.5 -74.5q0 -42 -29.5 -71.5t-70.5 -29.5q-44 0 -74 29t-30 72q0 45 29 75t72 30zM292 519q122 0 197.5 -74.5
t75.5 -193.5q0 -120 -75.5 -193.5t-197.5 -73.5t-198 74t-76 194q0 119 76 193t198 74zM219 252q0 -40 20.5 -65.5t52.5 -25.5t52 25t20 66q0 39 -20.5 64.5t-51.5 25.5q-32 0 -52.5 -25.5t-20.5 -64.5z" />
    <glyph glyph-name="divide" unicode="&#xf7;" horiz-adv-x="594" 
d="M275 158q24 0 40 -16t16 -41q0 -24 -17 -40q-15 -17 -39 -17t-40.5 17.5t-16.5 39.5q0 24 17.5 40.5t39.5 16.5zM506 202h-463v68h463v-68zM275 427q24 0 40 -17t16 -40q0 -24 -17 -40q-15 -17 -39 -17t-40.5 16.5t-16.5 40.5t17.5 40.5t39.5 16.5z" />
    <glyph glyph-name="oslash" unicode="&#xf8;" horiz-adv-x="588" 
d="M81 74q-5 6 -8.5 10.5t-17 22.5t-25.5 59.5t-12 86.5q0 122 75.5 196.5t199.5 74.5q46 0 79.5 -8.5t51 -18t53.5 -35.5l60 58l33 -37l-58 -55q30 -47 42 -86.5t12 -91.5q0 -121 -75 -196t-198 -75q-20 0 -42.5 3t-51 10t-85.5 45l-59 -59l-37 32zM254 175q15 -16 36 -16
q24 0 46 16t24 36l4 41l2 15l-2 15zM341 329q-18 16 -44 16q-33 0 -53.5 -26.5t-20.5 -67.5q0 -16 4 -35z" />
    <glyph glyph-name="ugrave" unicode="&#xf9;" horiz-adv-x="586" 
d="M554 234q0 -32 -3 -57.5t-15.5 -69t-80 -83.5t-162.5 -40q-115 0 -172.5 45.5t-73 86.5t-15.5 118v271h217v-263v-26q2 -15 14 -24.5t30 -9.5q24 0 33 11.5t10 23t1 25.5v263h217v-271zM312 789l78 -183l-132 -56l-120 165z" />
    <glyph glyph-name="uacute" unicode="&#xfa;" horiz-adv-x="586" 
d="M554 234q0 -32 -3 -57.5t-15.5 -69t-80 -83.5t-162.5 -40q-115 0 -172.5 45.5t-73 86.5t-15.5 118v271h217v-263v-26q2 -15 14 -24.5t30 -9.5q24 0 33 11.5t10 23t1 25.5v263h217v-271zM275 789l171 -73l-120 -166l-130 55z" />
    <glyph glyph-name="ucircumflex" unicode="&#xfb;" horiz-adv-x="586" 
d="M554 234q0 -32 -3 -57.5t-15.5 -69t-80 -83.5t-162.5 -40q-115 0 -172.5 45.5t-73 86.5t-15.5 118v271h217v-263v-26q2 -15 14 -24.5t30 -9.5q24 0 33 11.5t10 23t1 25.5v263h217v-271zM293 784l204 -132l-43 -103l-161 55l-161 -55l-44 103z" />
    <glyph glyph-name="udieresis" unicode="&#xfc;" horiz-adv-x="586" 
d="M164 737q42 0 72 -30t30 -73t-29 -73t-73 -30q-43 0 -73 30t-30 73t30 73t73 30zM422 737q42 0 72 -30t30 -73t-30 -73t-72 -30t-72 30t-30 73t29 73t73 30zM554 234q0 -32 -3 -57.5t-15.5 -69t-80 -83.5t-162.5 -40q-115 0 -172.5 45.5t-73 86.5t-15.5 118v271h217v-263
v-26q2 -15 14 -24.5t30 -9.5q24 0 33 11.5t10 23t1 25.5v263h217v-271z" />
    <glyph glyph-name="ydieresis" unicode="&#xff;" horiz-adv-x="514" 
d="M197 505l42 -132q9 -30 12.5 -58t3.5 -56q6 69 21 109l46 137h224l-228 -545q-7 -18 -16.5 -38.5t-42 -73t-151.5 -52.5q-29 0 -47 3t-44 13l21 172q16 -7 37 -7q36 0 43.5 14.5t11.5 25t15 39.5l-170 449h222zM131 756q42 0 71 -30t29 -74q0 -43 -29 -73t-73 -30
q-43 0 -73 30t-30 73t30.5 73.5t74.5 30.5zM385 756q43 0 74 -30t31 -74q0 -43 -30 -73t-74 -30q-42 0 -72 30t-30 73q0 42 30 73t71 31z" />
    <glyph glyph-name="dotlessi" unicode="&#x131;" horiz-adv-x="249" 
d="M18 505h217v-505h-217v505z" />
    <glyph glyph-name="OE" unicode="&#x152;" horiz-adv-x="1005" 
d="M523 721h447v-173h-224v-94h197v-173h-197v-108h231v-173h-454v40q-6 -7 -11.5 -11.5t-19 -14.5t-50.5 -20t-80 -10q-146 0 -245.5 108.5t-99.5 268.5q0 165 99.5 270.5t253.5 105.5q103 0 153 -41v25zM524 366l-2 66q0 19 -21.5 43t-42 32.5t-36.5 11.5t-30 3
q-61 0 -101 -45t-40 -114t39 -113t101 -44q61 0 91.5 31t36.5 49.5t6 55.5z" />
    <glyph glyph-name="oe" unicode="&#x153;" horiz-adv-x="919" 
d="M626 520q124 0 199.5 -77.5t75.5 -203.5v-31h-337q0 -35 20 -56t53 -21q60 0 60 52l192 -24q-19 -58 -71.5 -116.5t-192.5 -58.5q-45 0 -72.5 7t-64.5 30q-11 5 -18 11t-14 14q-37 -34 -73 -48t-89 -14q-122 0 -199 74t-77 192t78 194t200 76q108 0 165 -65q53 65 165 65
zM295 169q33 0 51 22t18 62q0 92 -70 92q-68 0 -68 -91q0 -40 18.5 -62.5t50.5 -22.5zM563 308h139l1 9q0 35 -18.5 54.5t-50.5 19.5q-33 0 -52 -21.5t-19 -61.5z" />
    <glyph glyph-name="Ydieresis" unicode="&#x178;" horiz-adv-x="602" 
d="M214 721l65 -148q10 -22 16.5 -55.5t6.5 -76.5q0 39 6.5 74.5t15.5 57.5l64 148h247l-222 -406v-315h-224v315l-221 406h246zM175 1007q42 0 71 -30t29 -74q0 -43 -29 -73t-73 -30q-43 0 -73 30t-30 73t30.5 73.5t74.5 30.5zM429 1007q43 0 74 -30t31 -74q0 -43 -30 -73
t-74 -30q-42 0 -72 30t-30 73q0 42 30 73t71 31z" />
    <glyph glyph-name="florin" unicode="&#x192;" horiz-adv-x="484" 
d="M-41 -39l33 -2q44 0 60.5 9.5t18.5 36.5l36 324h-72l18 173h73l7 55q9 75 65 122t138 47q63 0 152 -24l-26 -134l-44 2q-31 0 -50 -13t-21 -37l-1 -19l107 3l-17 -173l-111 -2l-36 -360q-5 -35 -45.5 -103t-168.5 -68q-69 0 -143 25z" />
    <glyph glyph-name="hungarumlaut" unicode="&#x2ba;" horiz-adv-x="317" 
d="M141 789l171 -73l-120 -166l-130 55z" />
    <glyph glyph-name="caron" unicode="&#x2c7;" horiz-adv-x="417" 
d="M48 778l161 -56l161 56l43 -103l-204 -132l-205 132z" />
    <glyph glyph-name="macron" unicode="&#x2c9;" horiz-adv-x="399" 
d="M1 697h396v-127h-396v127z" />
    <glyph glyph-name="breve" unicode="&#x2d8;" horiz-adv-x="414" 
d="M129 768q17 -114 74 -114q60 0 77 114l133 -4q-29 -104 -82 -159t-127 -55q-73 0 -126 55t-82 159z" />
    <glyph glyph-name="dotaccent" unicode="&#x2d9;" horiz-adv-x="413" 
d="M12 920l362 -53l-9 -107l-361 24z" />
    <glyph glyph-name="ring" unicode="&#x2da;" horiz-adv-x="271" 
d="M136 721q46 0 77.5 -25t31.5 -62q0 -36 -31.5 -61.5t-78.5 -25.5q-45 0 -77.5 25.5t-32.5 61.5t32.5 61.5t78.5 25.5zM103 635q0 -14 9 -24t23 -10q33 0 33 33q0 13 -9.5 22.5t-23.5 9.5q-12 0 -22 -9t-10 -22z" />
    <glyph glyph-name="ogonek" unicode="&#x2db;" horiz-adv-x="274" 
d="M137 210q48 0 81.5 -34.5t33.5 -82.5t-33 -82t-82 -34q-47 0 -81 34t-34 82t33.5 82.5t81.5 34.5z" />
    <glyph glyph-name="circumflex" unicode="&#x302;" horiz-adv-x="417" 
d="M209 784l204 -132l-43 -103l-161 55l-161 -55l-44 103z" />
    <glyph glyph-name="tilde" unicode="&#x303;" horiz-adv-x="391" 
d="M4 684q51 20 100 20q11 0 24.5 -1t25.5 -4l49 -9q44 -9 85 -9q30 0 50.5 4t48.5 17v-130q-27 -8 -48 -11.5t-44 -3.5q-11 0 -24.5 1t-27.5 4l-46 9q-37 6 -57 8.5t-37 2.5q-49 0 -99 -30v132z" />
    <glyph glyph-name="summation" unicode="&#x3a3;" horiz-adv-x="771" 
d="M618 643l15 -129h-44q-32 105 -85 144t-169 39h-132l315 -431l-344 -394h187q122 0 172.5 31.5t82.5 116.5h45l-30 -130l-2 -7q-23 -99 -111 -99h-482l389 446l-375 514h460q65 0 82 -15q17 -13 26 -86z" />
    <glyph glyph-name="Omega" unicode="&#x3a9;" horiz-adv-x="830" 
d="M593 90q48 0 68 19t20 67h23v-176h-272v180q77 15 122.5 76.5t45.5 151.5q0 106 -59 168.5t-157 62.5t-157 -62.5t-59 -168.5q0 -90 44.5 -151t123.5 -77v-180h-272v176h23q0 -48 19 -67t69 -19h123v59q-118 21 -183 89t-65 170q0 121 92.5 194t241.5 73t241.5 -73.5
t92.5 -193.5q0 -100 -64 -168t-184 -91v-59h123z" />
    <glyph glyph-name="pi" unicode="&#x3c0;" horiz-adv-x="594" 
d="M404 373l-1 -24l-3 -150v-40q0 -84 8.5 -105t30.5 -21q28 0 41 29q17 31 17 89h25v-5q0 -80 -26 -118t-80 -38q-56 0 -79.5 40t-23.5 164l1 78l3 104l-50 1l-77 2q0 -234 -23 -311.5t-80 -77.5q-35 0 -52.5 29t-17.5 86v19h24q0 -27 9.5 -39.5t27.5 -12.5q42 0 54.5 47
t18 110.5t5.5 149.5h-22q-38 0 -59.5 -13.5t-27.5 -39.5h-23q0 34 10 57.5t36.5 44.5t112.5 21l102 -3l152 -3q34 0 49.5 7t16.5 21l23 1q0 -53 -23.5 -76.5t-74.5 -23.5h-14z" />
    <glyph glyph-name="endash" unicode="&#x2013;" 
d="M76 446h503v-172h-503v172z" />
    <glyph glyph-name="emdash" unicode="&#x2014;" horiz-adv-x="996" 
d="M30 446h936v-172h-936v172z" />
    <glyph glyph-name="quoteleft" unicode="&#x2018;" horiz-adv-x="278" 
d="M120 738l141 -17l-46 -360l-204 24z" />
    <glyph glyph-name="quoteright" unicode="&#x2019;" horiz-adv-x="279" 
d="M55 745l206 -25l-111 -352l-139 16z" />
    <glyph glyph-name="quotesinglbase" unicode="&#x201a;" horiz-adv-x="280" 
d="M55 217l208 -25l-113 -352l-139 16z" />
    <glyph glyph-name="quotedblleft" unicode="&#x201c;" horiz-adv-x="523" 
d="M120 738l141 -17l-46 -360l-204 24zM365 738l140 -17l-44 -360l-205 24z" />
    <glyph glyph-name="quotedblright" unicode="&#x201d;" horiz-adv-x="523" 
d="M55 745l206 -25l-111 -352l-139 16zM301 745l205 -25l-111 -352l-139 16z" />
    <glyph glyph-name="quotedblbase" unicode="&#x201e;" horiz-adv-x="525" 
d="M55 217l208 -25l-113 -352l-139 16zM301 217l206 -25l-112 -352l-139 16z" />
    <glyph glyph-name="dagger" unicode="&#x2020;" horiz-adv-x="666" 
d="M18 515h216v218h198v-218h216v-195h-216v-522h-200v522h-214v195z" />
    <glyph glyph-name="daggerdbl" unicode="&#x2021;" horiz-adv-x="685" 
d="M26 222l217 1v97l-215 -2l-1 197h216l-1 211h200l-1 -211l218 -1v-194l-215 -1l-1 -97l216 -1l-1 -195l-217 2l1 -218l-200 1v218l-217 2z" />
    <glyph glyph-name="bullet" unicode="&#x2022;" 
d="M328 368q47 0 81 -34t34 -82t-34 -82t-83 -34q-46 0 -80 34t-34 82t34 82t82 34z" />
    <glyph glyph-name="ellipsis" unicode="&#x2026;" horiz-adv-x="996" 
d="M167 202q44 0 76 -32t32 -76q0 -45 -31.5 -76.5t-76.5 -31.5t-76.5 31.5t-31.5 76.5t31.5 76.5t76.5 31.5zM500 202q44 0 76 -32t32 -76q0 -45 -31.5 -76.5t-76.5 -31.5t-76.5 31.5t-31.5 76.5t31.5 76.5t76.5 31.5zM833 202q44 0 76 -32t32 -76q0 -45 -31.5 -76.5
t-76.5 -31.5t-76.5 31.5t-31.5 76.5t31.5 76.5t76.5 31.5z" />
    <glyph glyph-name="perthousand" unicode="&#x2030;" horiz-adv-x="1063" 
d="M177 736q63 0 107 -63t44 -154q0 -89 -44 -153t-107 -64t-107.5 63.5t-44.5 153.5t44.5 153.5t107.5 63.5zM461 751l100 -39l-287 -751l-96 38zM563 421q63 0 107.5 -63.5t44.5 -154.5q0 -90 -44 -153.5t-108 -63.5q-62 0 -106 63t-44 153q0 91 44 155t106 64zM885 421
q63 0 107.5 -63.5t44.5 -154.5q0 -90 -44 -153.5t-108 -63.5q-62 0 -106 63t-44 153q0 91 44 155t106 64zM519 202q0 -29 13 -50t32 -21q18 0 32 21t14 51q0 31 -13.5 51.5t-33.5 20.5q-18 0 -31 -21t-13 -52zM131 519q0 -30 13 -51.5t32 -21.5q18 0 32 21.5t14 51.5t-13 51
t-32 21q-20 0 -33 -20.5t-13 -51.5zM841 202q0 -29 13 -50t32 -21q18 0 32 21t14 51q0 31 -13.5 51.5t-33.5 20.5q-18 0 -31 -21t-13 -52z" />
    <glyph glyph-name="guilsinglleft" unicode="&#x2039;" horiz-adv-x="406" 
d="M278 506l104 -103l-153 -152l152 -150l-104 -103l-252 254z" />
    <glyph glyph-name="guilsinglright" unicode="&#x203a;" horiz-adv-x="402" 
d="M128 505l249 -253l-251 -253l-100 102l149 151l-150 151z" />
    <glyph glyph-name="trademark" unicode="&#x2122;" horiz-adv-x="759" 
d="M29 720h222v-68l-74 1v-293h-75v293l-73 -1v68zM298 720h74l64 -174q13 -34 16.5 -50.5t3.5 -39.5q0 37 20 90l64 174h75l58 -360h-72l-30 191l-3 26v24t1 24l-13 -48l-5 -19l-3 -7l-69 -191h-46l-69 191l-2 7l-6 19l-13 48q1 -6 1 -18v-18v-12l-3 -26l-30 -191h-72z" />
    <glyph glyph-name="partialdiff" unicode="&#x2202;" horiz-adv-x="534" 
d="M358 287q4 14 6.5 28t2.5 31l3 89q0 85 -15.5 126t-47.5 41q-18 0 -50 -35t-56 -35q-16 0 -25.5 7.5t-11.5 24.5q0 29 30.5 50t71.5 21q77 0 111.5 -54t46.5 -103t12 -111q0 -163 -64.5 -271.5t-157.5 -108.5q-68 0 -110 51t-42 137q0 82 53 143.5t125 61.5
q44 0 72.5 -22t45.5 -71zM256 349q-52 0 -86 -60t-34 -161q0 -57 21.5 -88t62.5 -31q53 0 87 62t34 153q0 58 -21.5 91.5t-63.5 33.5z" />
    <glyph glyph-name="Delta" unicode="&#x2206;" horiz-adv-x="662" 
d="M595 0h-574l276 672h22zM92 45h373l-186 459z" />
    <glyph glyph-name="product" unicode="&#x220f;" horiz-adv-x="890" 
d="M118 -176v880h-88v40h767v-40h-88v-880h88v-40h-264v40h84v880h-407v-880h84v-40h-264v40h88z" />
    <glyph glyph-name="fraction" unicode="&#x2215;" horiz-adv-x="230" 
d="M240 751l98 -49l-343 -741l-103 49z" />
    <glyph glyph-name="periodcentered" unicode="&#x2219;" 
d="M328 368q47 0 81 -34t34 -82t-34 -82t-83 -34q-46 0 -80 34t-34 82t34 82t82 34z" />
    <glyph glyph-name="radical" unicode="&#x221a;" horiz-adv-x="594" 
d="M594 764h-57l-290 -784h-32l-156 431l-61 -22l-12 39l138 48l125 -346l252 681h93v-47z" />
    <glyph glyph-name="infinity" unicode="&#x221e;" horiz-adv-x="771" 
d="M366 238q-33 -62 -71.5 -93t-85.5 -31q-66 0 -111 52.5t-45 131.5q0 83 41 134.5t105 51.5q47 0 82.5 -29.5t65.5 -94.5q31 62 69.5 93t87.5 31q63 0 109 -53t46 -131q0 -83 -40.5 -134.5t-104.5 -51.5q-46 0 -84 30q-36 31 -64 94zM330 327q-26 46 -59 69.5t-76 23.5
q-51 0 -84 -35t-33 -90q0 -54 29.5 -88.5t76.5 -34.5q40 0 71.5 31.5t74.5 123.5zM383 271q23 -45 58 -70q35 -23 77 -23q52 0 84.5 35t32.5 90q0 56 -30 89.5t-80 33.5q-37 0 -71 -36t-71 -119z" />
    <glyph glyph-name="integral" unicode="&#x222b;" horiz-adv-x="296" 
d="M283 757q36 0 58.5 -18.5t22.5 -48.5q0 -20 -13 -34t-36 -14q-29 0 -44 32t-29 32q-57 0 -57 -310l-3 -98q0 -63 -4.5 -120t-14 -128t-31 -120t-60 -80t-81.5 -31q-35 0 -58 18.5t-23 48.5q0 22 12.5 34.5t36.5 12.5q29 0 44 -31t30 -32q57 0 57 324l2 84q0 60 4 116
t13.5 127.5t31.5 122.5t59.5 82t82.5 31z" />
    <glyph glyph-name="approxequal" unicode="&#x2248;" horiz-adv-x="594" 
d="M15 100v77q49 31 87 44.5t74 13.5q44 0 115 -24t99 -24t61.5 15t82.5 52v-78q-42 -28 -76.5 -41.5t-72.5 -13.5q-32 0 -104 23.5t-116 23.5q-28 0 -53.5 -11t-48 -24.5t-48.5 -32.5zM15 219v77q23 14 43.5 25t50.5 21.5t66 10.5q42 0 114.5 -23.5t100.5 -23.5
q27 0 60 14.5t84 51.5v-77q-18 -12 -41 -24t-49 -21.5t-59 -9.5t-104.5 23.5t-110.5 23.5q-35 0 -66 -13.5t-89 -54.5z" />
    <glyph glyph-name="notequal" unicode="&#x2260;" horiz-adv-x="594" 
d="M413 336h91v-64h-149l-73 -72h222v-64h-281l-118 -118l-43 44l74 74h-91v64h150l73 72h-223v64h281l118 118l44 -44z" />
    <glyph glyph-name="lessequal" unicode="&#x2264;" horiz-adv-x="594" 
d="M506 18h-463v68h463v-68zM162 280l344 -107v-70l-462 145v65l462 145v-70z" />
    <glyph glyph-name="greaterequal" unicode="&#x2265;" horiz-adv-x="594" 
d="M506 18h-463v68h463v-68zM506 248l-463 -145v70l344 107l-344 108v70l463 -145v-65z" />
    <glyph glyph-name="lozenge" unicode="&#x25ca;" horiz-adv-x="534" 
d="M247 807l244 -518l-244 -522l-244 522zM247 688l-188 -399l188 -403l188 403z" />
    <glyph glyph-name="apple" unicode="&#xf000;" horiz-adv-x="854" 
d="M408 594l-1 7v11q0 61 46 112t116 64v-12l1 -18q0 -64 -50.5 -114.5t-99.5 -50.5h-4zM735 197q-56 -121 -101 -167.5t-99 -46.5q-25 0 -64 16t-60 16q-23 0 -64 -16t-62 -16q-30 0 -63 21q-13 10 -30.5 27.5t-48.5 60t-59.5 120.5t-28.5 148q0 107 61.5 174.5t157.5 67.5
q16 0 35.5 -4t51.5 -17t49 -13q18 0 61 17t73 17q55 0 97.5 -19.5t77.5 -60.5q-49 -31 -73.5 -70.5t-24.5 -89.5q0 -54 30 -98t84 -67z" />
    <glyph glyph-name="fi" unicode="&#xf001;" 
d="M198 369l-113 112l123 122l112 -112l117 117l137 -138l-117 -118l113 -112l-122 -122l-113 112l-118 -116l-137 137z" />
    <glyph glyph-name="fl" unicode="&#xf002;" horiz-adv-x="493" 
d="M30 173h112v375h-110v173h327v-548l111 6v-179h-440v173z" />
    <glyph glyph-name="glyph225" horiz-adv-x="560" 
d="M58 263l23 -23q14 -12 33 -26t54 -33.5t80 -19.5q30 0 51 15t21 38q0 9 -5 17t-14.5 14t-19.5 9.5t-46.5 13.5t-53.5 15t-51.5 19.5t-70.5 66.5t-36 116q0 48 21 96.5t57 82t91.5 52.5t119.5 19q115 0 216 -57l-69 -175q-83 56 -145 56q-26 0 -42 -11t-16 -31
q0 -10 6 -19t22 -16.5t66.5 -22t76.5 -26.5t70.5 -49.5t44.5 -140.5q0 -117 -78.5 -188.5t-206.5 -71.5q-74 0 -134 21t-123 70zM119 1029l161 -56l161 56l43 -103l-204 -132l-205 132z" />
    <glyph glyph-name="glyph226" horiz-adv-x="450" 
d="M51 191q28 -26 63 -41.5t67 -15.5q17 0 27.5 7.5t10.5 19.5q0 13 -11 18.5t-21 8.5t-34.5 7.5t-35 8t-34.5 17t-42 46.5t-18 69q0 81 61.5 132t159.5 51q87 0 174 -35l-44 -147q-22 15 -52 26t-47 11q-47 0 -47 -25q0 -11 14 -18.5t44 -12.5t49.5 -11t40.5 -18t38 -44.5
t17 -73.5q0 -85 -63 -136t-166 -51q-76 0 -113 14.5t-55 23.5t-37 20zM64 778l161 -56l161 56l43 -103l-204 -132l-205 132z" />
    <glyph glyph-name="glyph227" horiz-adv-x="624" 
d="M11 84l237 393q26 42 82 79q-35 -18 -65 -27.5t-48 -9.5h-178v202h549v-99l-226 -380q-25 -39 -84 -79q64 35 108 35l223 4v-202h-598v84zM151 1029l161 -56l161 56l43 -103l-204 -132l-205 132z" />
    <glyph glyph-name="glyph228" horiz-adv-x="526" 
d="M8 77l148 207q3 7 20.5 26t49.5 47q-16 -7 -35.5 -13t-34.5 -9l-25 -3h-103v173h488v-69l-155 -217l-15 -17q-16 -19 -26 -29.5t-29 -28.5q23 11 37 16.5t32 9.5l24 3h119v-173h-495v77zM102 778l161 -56l161 56l43 -103l-204 -132l-205 132z" />
    <glyph glyph-name="Eurosymbolbar" horiz-adv-x="495" 
d="M0 391l27 64h468l-27 -64h-468zM0 263l27 64h414l-27 -64h-414z" />
  </font>
</defs>
</svg>
